<?xml version="1.0" standalone="no"?>
<!DOCTYPE svg PUBLIC "-//W3C//DTD SVG 20010904//EN"
 "http://www.w3.org/TR/2001/REC-SVG-20010904/DTD/svg10.dtd">
<svg version="1.0" xmlns="http://www.w3.org/2000/svg"
 width="1024.000000pt" height="1024.000000pt" viewBox="0 0 1024.000000 1024.000000"
 preserveAspectRatio="xMidYMid meet">

<g transform="translate(0.000000,1024.000000) scale(0.100000,-0.100000)"
fill="#000000" stroke="none">
<path d="M2326 8809 c-162 -39 -297 -140 -369 -276 -73 -139 -67 142 -67
-3194 0 -1949 3 -3025 10 -3060 5 -30 28 -91 50 -136 70 -142 196 -245 349
-284 71 -18 134 -19 1655 -19 1485 0 1583 1 1616 18 49 24 80 75 80 129 0 59
-22 99 -70 123 -38 20 -60 20 -1622 22 l-1583 3 -45 21 c-61 29 -115 89 -134
149 -15 45 -16 323 -14 3050 l3 3000 33 52 c18 28 50 63 71 77 84 59 -30 56
2152 56 l2006 0 44 -30 c24 -16 277 -262 562 -547 l517 -518 0 -1257 0 -1257
30 -35 c53 -60 136 -71 194 -25 59 47 56 -33 56 1311 0 1341 1 1314 -56 1418
-19 35 -172 194 -518 538 -598 595 -631 626 -704 660 l-57 27 -2055 1 c-1979
1 -2058 1 -2134 -17z"/>
<path d="M3222 7600 c-265 -62 -409 -270 -362 -521 30 -158 154 -266 365 -319
44 -11 127 -31 185 -45 133 -33 181 -60 210 -120 17 -36 21 -55 16 -90 -16
-103 -95 -158 -233 -162 -154 -4 -254 46 -304 151 -16 33 -29 67 -29 74 0 16
7 17 -140 -25 l-129 -36 6 -31 c8 -49 60 -156 97 -201 49 -59 147 -121 240
-152 74 -25 94 -27 236 -28 176 0 227 11 326 71 160 96 234 241 221 435 -6 90
-30 150 -83 209 -77 86 -174 132 -354 169 -174 36 -246 61 -290 98 -132 113
-22 293 180 293 133 0 240 -69 270 -174 10 -35 17 -46 29 -43 9 2 65 17 124
33 l109 29 -7 40 c-17 114 -115 239 -229 295 -134 65 -308 84 -454 50z"/>
<path d="M4707 7609 c-286 -45 -492 -243 -563 -544 -26 -107 -24 -346 4 -447
59 -215 186 -376 367 -462 176 -85 424 -89 600 -11 256 113 404 368 405 696 0
127 -1 137 -18 225 -54 262 -257 477 -500 529 -85 17 -229 24 -295 14z m280
-285 c107 -51 188 -160 223 -299 17 -72 20 -248 4 -324 -30 -146 -114 -261
-229 -316 -53 -25 -71 -29 -155 -29 -119 -1 -186 24 -263 94 -100 91 -147 217
-147 395 0 269 106 445 300 500 81 22 194 13 267 -21z"/>
<path d="M5780 6855 l0 -735 145 0 145 0 2 268 3 267 235 5 c258 6 286 12 385
80 153 105 219 324 160 531 -20 69 -42 107 -99 167 -124 132 -214 152 -670
152 l-306 0 0 -735z m665 475 c25 -7 58 -30 87 -60 40 -42 47 -56 53 -103 15
-116 -47 -226 -142 -255 -25 -7 -105 -12 -207 -12 l-166 0 0 226 0 227 168 -6
c92 -3 185 -10 207 -17z"/>
<path d="M2873 5485 c-42 -18 -73 -69 -73 -120 0 -52 17 -84 59 -112 l34 -23
1469 0 c1653 0 1518 -7 1559 76 34 70 9 143 -61 179 -42 22 -2937 22 -2987 0z"/>
<path d="M6965 4723 c-129 -12 -350 -71 -487 -131 -210 -92 -439 -275 -584
-468 -174 -229 -264 -450 -309 -754 -29 -196 -1 -455 71 -679 31 -93 116 -265
174 -352 194 -287 485 -505 815 -608 267 -84 590 -91 854 -19 265 72 485 201
686 403 300 299 449 658 446 1072 -2 163 -6 210 -27 308 -101 472 -399 861
-819 1069 -256 127 -548 184 -820 159z m359 -309 c328 -55 620 -241 811 -519
86 -125 165 -314 189 -450 53 -299 17 -567 -111 -816 -151 -296 -409 -516
-726 -620 -303 -99 -661 -72 -942 72 -131 66 -215 128 -320 234 -106 105 -169
192 -234 322 -37 75 -84 206 -96 268 -36 188 -39 333 -9 520 24 151 123 380
223 512 283 376 739 555 1215 477z"/>
<path d="M7721 3759 c-19 -11 -215 -200 -435 -419 l-401 -399 -175 174 c-96
95 -188 178 -203 184 -63 24 -137 2 -170 -51 -25 -39 -30 -94 -11 -133 9 -19
121 -136 250 -262 257 -250 283 -268 347 -242 23 9 196 173 504 478 257 255
473 473 480 485 19 32 16 107 -6 142 -21 35 -75 64 -118 64 -15 0 -43 -9 -62
-21z"/>
<path d="M2852 4604 c-78 -54 -64 -193 23 -230 52 -21 2538 -21 2590 0 46 20
75 69 75 128 0 39 -5 52 -34 82 l-33 36 -1299 0 c-1161 0 -1302 -2 -1322 -16z"/>
<path d="M2859 3753 c-85 -53 -76 -194 15 -237 31 -14 137 -16 1046 -16 1119
0 1052 -4 1098 65 29 42 31 88 7 138 -34 71 39 67 -1107 67 -937 -1 -1035 -2
-1059 -17z"/>
</g>
</svg>
